<?xml version="1.0" encoding="UTF-8" standalone="no"?>
<svg
   xmlns:dc="http://purl.org/dc/elements/1.1/"
   xmlns:cc="http://creativecommons.org/ns#"
   xmlns:rdf="http://www.w3.org/1999/02/22-rdf-syntax-ns#"
   xmlns:svg="http://www.w3.org/2000/svg"
   xmlns="http://www.w3.org/2000/svg"
   xmlns:sodipodi="http://sodipodi.sourceforge.net/DTD/sodipodi-0.dtd"
   xmlns:inkscape="http://www.inkscape.org/namespaces/inkscape"
   id="svg8"
   version="1.1"
   class="letters"
   x="0"
   y="0"
   height="100"
   width="100 "
   xml:space="preserve"
   inkscape:version="0.91 r13725"
   sodipodi:docname="catalyst-to-fix.svg"><metadata
     id="metadata91"><rdf:RDF><cc:Work
         rdf:about=""><dc:format>image/svg+xml</dc:format><dc:type
           rdf:resource="http://purl.org/dc/dcmitype/StillImage" /></cc:Work></rdf:RDF></metadata><defs
     id="defs89" /><sodipodi:namedview
     pagecolor="#ffffff"
     bordercolor="#666666"
     borderopacity="1"
     objecttolerance="10"
     gridtolerance="10"
     guidetolerance="10"
     inkscape:pageopacity="0"
     inkscape:pageshadow="2"
     inkscape:window-width="970"
     inkscape:window-height="617"
     id="namedview87"
     showgrid="false"
     inkscape:zoom="2.36"
     inkscape:cx="50"
     inkscape:cy="50"
     inkscape:window-x="203"
     inkscape:window-y="95"
     inkscape:window-maximized="0"
     inkscape:current-layer="allLetters" /><g
     id="allLetters"><g
       id="c"
       class="l"><path
         
         id="path4356"
         d="m 86.496094,108.64062 c 0.219585,0.78666 0.448541,1.56797 0.644531,2.36524 0.307359,1.2503 0.6077,2.50449 0.974609,3.73047 0.366909,1.22598 0.799089,2.42435 1.369141,3.56445 0.254934,0.50987 0.689142,0.88685 1.144531,1.25 0.21114,0.16838 0.386935,0.36649 0.591797,0.54102 2.057941,-2.47034 3.791207,-4.94177 5.080078,-7.41211 1.56,-2.88 2.75961,-5.69899 3.59961,-8.45899 0.839999,-2.88 1.438829,-5.400544 1.798829,-7.560544 0.48,-2.28 0.7207,-4.08039 0.7207,-5.40039 0.12,-1.44 0.17969,-2.219844 0.17969,-2.339844 0,-1.44 -0.47945,-2.63961 -1.43945,-3.59961 -0.96,-0.959999 -2.159613,-1.439453 -3.599613,-1.439453 -1.44,0 -2.70125,0.479454 -3.78125,1.439453 -1.08,0.96 -1.619141,2.15961 -1.619141,3.59961 l -0.179687,1.61914 c 0,1.08 -0.181016,2.520313 -0.541016,4.320313 -0.24,1.68 -0.719453,3.661406 -1.439453,5.941405 -0.72,2.28 -1.680859,4.55985 -2.880859,6.83984 -0.188236,0.35556 -0.425698,0.65478 -0.623047,1 z"
         style="font-size:50.79999924px;letter-spacing:10.86908436px;stroke-width:0.26458332"
         inkscape:connector-curvature="0" /><path
         
         id="path4354"
         d="m 38.626953,124.52344 c 0.05589,0.34068 0.10093,0.6827 0.15625,1.02344 0.457073,2.81524 0.886345,5.63419 1.123047,8.4746 0.03805,0.45654 -0.018,0.91897 -0.0332,1.37891 3.643062,0.61723 7.450003,1.03906 11.607422,1.03906 6.599999,0 12.359297,-0.72015 17.279297,-2.16015 4.919999,-1.44 9.18125,-3.30008 12.78125,-5.58008 3.599999,-2.4 6.6,-4.97828 9,-7.73828 0.25188,-0.28966 0.438381,-0.57948 0.679687,-0.86914 -0.204862,-0.17453 -0.380657,-0.37264 -0.591797,-0.54102 -0.455389,-0.36315 -0.889597,-0.74013 -1.144531,-1.25 -0.570052,-1.1401 -1.002232,-2.33847 -1.369141,-3.56445 -0.366909,-1.22598 -0.66725,-2.48017 -0.974609,-3.73047 -0.19599,-0.79727 -0.424946,-1.57858 -0.644531,-2.36524 C 79.899717,120.17984 68.258505,126 51.480469,126 c -4.706927,0 -8.97262,-0.51567 -12.853516,-1.47656 z"
         style="font-size:50.79999924px;letter-spacing:10.86908436px;stroke-width:0.26458332"
         inkscape:connector-curvature="0" /><path
         
         id="path4352"
         d="m 12.464844,93.835938 c -0.119041,0.09965 -0.256146,0.177008 -0.373047,0.279296 -2.0286,1.775025 -3.6821726,3.802839 -5.513672,5.582032 -0.9077667,0.881844 -1.8617375,1.699474 -2.9238281,2.398434 0.7324233,2.53328 1.5733385,5.04695 2.6464843,7.52344 3.9599998,8.16 9.2398438,14.58172 15.8398438,19.26172 4.992374,3.27625 10.96528,5.373 17.732422,6.51953 0.0152,-0.45994 0.07125,-0.92237 0.0332,-1.37891 -0.236702,-2.84041 -0.665974,-5.65936 -1.123047,-8.4746 -0.05532,-0.34074 -0.100361,-0.68276 -0.15625,-1.02344 -10.762352,-2.66472 -18.377288,-8.98858 -22.787109,-19.04297 -1.32,-3.12 -2.340547,-6.360704 -3.060547,-9.720704 -0.139907,-0.652901 -0.188139,-1.275459 -0.314453,-1.923828 z"
         style="font-size:50.79999924px;letter-spacing:10.86908436px;stroke-width:0.26458332"
         inkscape:connector-curvature="0" /><path
         
         id="path4350"
         d="m 19.599609,24.181641 c -1.251933,-2.110799 -2.454094,-4.255263 -3.878906,-6.25 -0.670667,-0.938935 -1.454018,-1.790524 -2.216797,-2.658203 -0.172482,0.197366 -0.373454,0.366071 -0.542968,0.566406 -2.64,3.12 -4.9217975,6.780469 -6.8417974,10.980468 -1.5599999,3.48 -2.7596094,7.078829 -3.5996094,10.798829 -0.8399999,3.72 -1.4388281,7.380468 -1.79882808,10.980468 -0.35999997,3.6 -0.54101562,7.079454 -0.54101562,10.439453 C 0.05968751,62.399062 0,65.460703 0,68.220703 c 0,2.52 0.05968751,5.45836 0.1796875,8.818359 0,3.24 0.18101565,6.721407 0.54101562,10.441407 0.47999998,3.6 1.13851568,7.320156 1.97851568,11.160156 0.2621521,1.16096 0.6227996,2.305805 0.9550781,3.455075 1.0620906,-0.69896 2.0160614,-1.51659 2.9238281,-2.398434 1.8314994,-1.779193 3.485072,-3.807007 5.513672,-5.582032 0.116901,-0.102288 0.254006,-0.179648 0.373047,-0.279296 -0.523732,-2.688313 -1.014641,-5.366145 -1.304688,-7.976563 -0.36,-3.36 -0.600703,-6.539063 -0.720703,-9.539063 l 0,-8.099609 c 0,-6.96 0.360078,-13.861172 1.080078,-20.701172 0.72,-6.96 2.460704,-13.19875 5.220703,-18.71875 0.823153,-1.646306 1.801396,-3.164965 2.859375,-4.61914 z"
         style="font-size:50.79999924px;letter-spacing:10.86908436px;stroke-width:0.26458332"
         inkscape:connector-curvature="0" /><path
         
         id="path4348"
         d="M 87.251953,11.865234 C 78.319628,3.9901468 66.422729,0 51.480469,0 39.48047,0 29.640935,2.5205469 21.960938,7.5605469 18.816683,9.806443 16.017654,12.397035 13.503906,15.273438 c 0.762779,0.867679 1.54613,1.719268 2.216797,2.658203 1.424812,1.994737 2.626973,4.139201 3.878906,6.25 2.489385,-3.421619 5.591377,-6.343271 9.38086,-8.701172 5.519997,-3.36 13.02,-5.041016 22.5,-5.041016 13.199999,0 23.280235,3.541094 30.240234,10.621094 0.272532,0.265166 0.491774,0.578855 0.753906,0.853515 1.086306,-2.555842 2.141419,-5.126587 3.382813,-7.609374 0.418859,-0.83772 0.934264,-1.623895 1.394531,-2.439454 z"
         style="font-size:50.79999924px;letter-spacing:10.86908436px;stroke-width:0.26458332"
         inkscape:connector-curvature="0" /><path
         
         id="path9"
         d="m 87.251953,11.865234 c -0.460267,0.815559 -0.975672,1.601734 -1.394531,2.439454 -1.241394,2.482787 -2.296507,5.053532 -3.382813,7.609374 4.008456,4.20002 6.848902,9.466565 8.425782,15.886719 0.48,2.76 0.840078,4.918516 1.080078,6.478516 0.12,0.96 0.179687,1.801484 0.179687,2.521484 0,1.56 0.539141,2.819297 1.619141,3.779297 1.08,0.96 2.34125,1.439453 3.78125,1.439453 1.44,0 2.639613,-0.479453 3.599613,-1.439453 0.96,-0.96 1.43945,-2.159609 1.43945,-3.599609 l 0,-0.179688 c 0,-0.36 -0.11938,-1.62125 -0.35938,-3.78125 -0.12,-2.28 -0.59945,-5.039297 -1.43945,-8.279297 -0.839999,-3.24 -2.160936,-6.719453 -3.960936,-10.439453 -1.8,-3.72 -4.320547,-7.261094 -7.560547,-10.621093 -0.645285,-0.645285 -1.347216,-1.214826 -2.027344,-1.814454 z"
         style="font-size:50.79999924px;letter-spacing:10.86908436px;stroke-width:0.26458332"
         inkscape:connector-curvature="0" /></g><g
       id="a1"
       class="l"><path
         
         id="path4399"
         d="m 204.76953,99.359375 c -0.12878,-0.54015 -0.33544,-1.064373 -0.4043,-1.615234 -0.19998,-1.599896 0,-3.225541 0,-4.837891 l 0,-3.986328 -9.3789,0 c -1.44,0 -2.70125,0.539141 -3.78125,1.61914 -0.96,0.96 -1.43946,2.161563 -1.43946,3.601563 10e-6,1.44 0.47946,2.699297 1.43946,3.779297 1.08,0.96 2.34125,1.439453 3.78125,1.439453 l 9.7832,0 z"
         style="font-size:50.79999924px;letter-spacing:10.86908436px;stroke-width:0.26458332"
         inkscape:connector-curvature="0" /><path
         
         id="path4397"
         d="m 165.42383,108.62695 1.13086,0 c -0.10889,-0.32649 -0.28347,-0.80091 -0.53125,-1.44726 l -0.59961,1.44726 z"
         style="font-size:50.79999924px;letter-spacing:10.86908436px;stroke-width:0.26458332"
         inkscape:connector-curvature="0" /><path
         
         id="path4395"
         d="m 171.85352,120.64648 c -0.97073,-2.28477 -1.97593,-4.69508 -2.55664,-5.97265 -2.75245,-5.5049 -2.77092,-5.39748 -2.54493,-5.02539 0.113,0.18604 0.28778,0.43835 0.21094,0.0879 -0.0242,-0.11026 -0.32472,-0.85904 -0.4082,-1.10938 l -1.13086,0 -8.23828,19.89258 c -0.6,1.32 -0.6,2.64094 0,3.96094 0.6,1.32 1.56086,2.27891 2.88086,2.87891 0.48,0.23999 1.14047,0.36132 1.98047,0.36132 2.03999,0 3.65937,-1.02054 4.85937,-3.06054 l 4.94727,-12.01368 z"
         style="font-size:50.79999924px;letter-spacing:10.86908436px;stroke-width:0.26458332"
         inkscape:connector-curvature="0" /><path
         
         id="path4393"
         d="m 176.80273,108.62695 -10.24804,0 c 0.0835,0.25034 0.38403,0.99912 0.4082,1.10938 0.0768,0.35046 -0.0979,0.0982 -0.21094,-0.0879 -0.22599,-0.37209 -0.20752,-0.47951 2.54493,5.02539 0.58071,1.27757 1.58591,3.68788 2.55664,5.97265 l 4.94921,-12.01953 z"
         style="font-size:50.79999924px;letter-spacing:10.86908436px;stroke-width:0.26458332"
         inkscape:connector-curvature="0" /><path
         
         id="path4391"
         d="m 188.67773,79.783203 c -0.41739,-0.03654 -0.82513,-0.145651 -1.24218,-0.177734 -2.4114,-0.185492 -4.83733,0 -7.25586,0 l -2.73633,0 -11.41992,27.574221 c 0.24778,0.64635 0.42236,1.12077 0.53125,1.44726 l 10.24804,0 11.875,-28.843747 z"
         style="font-size:50.79999924px;letter-spacing:10.86908436px;stroke-width:0.26458332"
         inkscape:connector-curvature="0" /><path
         
         id="path4389"
         d="m 195.22461,63.884766 17.92578,-43.533204 c -0.10681,10e-4 -0.21355,0 -0.32031,0 l -6.04688,0 c -1.56214,0 -3.18649,-0.01971 -4.77929,-0.05078 l -18.05079,43.583985 1.06446,0 6.04492,0 c 1.38724,0 2.77509,0.0051 4.16211,0 z"
         style="font-size:50.79999924px;letter-spacing:10.86908436px;stroke-width:0.26458332"
         inkscape:connector-curvature="0" /><path
         
         id="path4387"
         d="m 195.22461,63.884766 c -1.38702,0.0051 -2.77487,0 -4.16211,0 l -6.04492,0 -1.06446,0 -6.50976,15.720703 2.73633,0 c 2.41853,0 4.84446,-0.185492 7.25586,0 0.41705,0.03208 0.82479,0.14119 1.24218,0.177734 l 6.54688,-15.898437 z"
         style="font-size:50.79999924px;letter-spacing:10.86908436px;stroke-width:0.26458332"
         inkscape:connector-curvature="0" /><path
         
         id="path4385"
         d="m 235.49023,97.654297 c 0.92285,-1.023499 1.43555,-2.182557 1.43555,-3.513672 0,-1.44 -0.53914,-2.641563 -1.61914,-3.601563 -0.96,-1.079999 -2.16156,-1.61914 -3.60156,-1.61914 l -17.1582,0 c 1.50718,0.760631 2.39551,1.205572 5.53906,2.777344 2.41852,1.209259 4.7321,2.656278 7.25586,3.626953 2.63658,1.014073 5.45763,1.470591 8.14843,2.330078 z"
         style="font-size:50.79999924px;letter-spacing:10.86908436px;stroke-width:0.26458332"
         inkscape:connector-curvature="0" /><path
         
         id="path4383"
         d="m 235.49023,97.654297 c -2.6908,-0.859487 -5.51185,-1.316005 -8.14843,-2.330078 -2.52376,-0.970675 -4.83734,-2.417694 -7.25586,-3.626953 -3.14355,-1.571772 -4.03188,-2.016713 -5.53906,-2.777344 l -10.18165,0 0,3.986328 c 0,1.61235 -0.19998,3.237995 0,4.837891 0.0689,0.550861 0.27552,1.075084 0.4043,1.615234 l 26.93555,0 c 1.44,0 2.64156,-0.479453 3.60156,-1.439453 0.0817,-0.08166 0.10811,-0.181903 0.18359,-0.265625 z"
         style="font-size:50.79999924px;letter-spacing:10.86908436px;stroke-width:0.26458332"
         inkscape:connector-curvature="0" /><path
         
         id="path4381"
         d="m 259.19141,103.78906 -1.61914,0 c -1.61235,0 -3.25491,0.31621 -4.83594,0 -0.8636,-0.17272 -3.39692,-1.12176 -5.51367,-1.875 l 12.5625,30.7461 c 0.6,1.32 1.50117,2.2789 2.70117,2.8789 1.32,0.48 2.63898,0.42031 3.95898,-0.17968 1.32,-0.6 2.28086,-1.55891 2.88086,-2.87891 0.6,-1.32 0.6,-2.64094 0,-3.96094 l -10.13476,-24.73047 z"
         style="font-size:50.79999924px;letter-spacing:10.86908436px;stroke-width:0.26458332"
         inkscape:connector-curvature="0" /><path
         
         id="path4379"
         d="m 253.88672,90.847656 c -0.43692,0.332187 -0.50213,0.309394 -1.15039,0.84961 -0.65689,0.547407 -1.20858,1.217624 -1.77344,1.86914 -0.56486,0.651517 -1.144,1.283502 -1.85547,1.757813 -0.5303,0.35353 -1.16084,0.497931 -1.79687,0.632812 -0.63603,0.134881 -1.27672,0.261919 -1.83008,0.578125 -0.12594,0.07196 -0.22569,0.183718 -0.34766,0.261719 l 2.08985,5.117185 c 2.11675,0.75324 4.65007,1.70228 5.51367,1.875 1.58103,0.31621 3.22359,0 4.83594,0 l 1.61914,0 -5.30469,-12.941404 z"
         style="font-size:50.79999924px;letter-spacing:10.86908436px;stroke-width:0.26458332"
         inkscape:connector-curvature="0" /><path
         
         id="path4377"
         d="m 238.10352,52.335938 c -0.98425,0.373835 -1.97302,0.736908 -2.92579,1.199218 -1.38587,0.672466 -2.7635,1.36852 -4.20898,1.884766 -0.80151,0.286254 -1.6347,0.474098 -2.45508,0.701172 l 16.61914,40.675781 c 0.12197,-0.078 0.22172,-0.189755 0.34766,-0.261719 0.55336,-0.316206 1.19405,-0.443244 1.83008,-0.578125 0.63603,-0.134881 1.26657,-0.279282 1.79687,-0.632812 0.71147,-0.474311 1.29061,-1.106296 1.85547,-1.757813 0.56486,-0.651516 1.11655,-1.321733 1.77344,-1.86914 0.64826,-0.540216 0.71347,-0.517423 1.15039,-0.84961 l -15.7832,-38.511718 z"
         style="font-size:50.79999924px;letter-spacing:10.86908436px;stroke-width:0.26458332"
         inkscape:connector-curvature="0" /><path
         
         id="path4375"
         d="m 234.01172,42.351562 c -1.77464,0.826408 -3.7468,1.233242 -5.46094,2.185547 -1.33009,0.738937 -2.47006,1.771409 -3.65234,2.738282 l 3.61523,8.845703 c 0.82038,-0.227074 1.65357,-0.414918 2.45508,-0.701172 1.44548,-0.516246 2.82311,-1.2123 4.20898,-1.884766 0.95277,-0.46231 1.94154,-0.825383 2.92579,-1.199218 l -4.0918,-9.984376 z"
         style="font-size:50.79999924px;letter-spacing:10.86908436px;stroke-width:0.26458332"
         inkscape:connector-curvature="0" /><path
         
         id="path4373"
         d="m 225.70898,22.089844 c -0.36704,-0.252606 -0.26134,-0.178785 -0.7871,-0.529297 -1.92448,-0.721683 -3.99978,-1.004465 -6.04493,-1.208985 -1.65111,-0.165117 -3.31703,-0.04288 -4.97851,0 l 11,26.923829 c 1.18228,-0.966873 2.32225,-1.999345 3.65234,-2.738282 1.71414,-0.952305 3.6863,-1.359139 5.46094,-2.185547 l -8.30274,-20.261718 z"
         style="font-size:50.79999924px;letter-spacing:10.86908436px;stroke-width:0.26458332"
         inkscape:connector-curvature="0" /><path
         
         id="path11"
         d="m 213.52539,0.72070312 c -2.28,0 -3.83969,1.01859378 -4.67969,3.05859378 l -6.84179,16.5214841 c 1.5928,0.03107 3.21715,0.05078 4.77929,0.05078 l 6.04688,0 c 0.10676,0 0.2135,0.001 0.32031,0 l 0.375,-0.912109 0.37305,0.912109 c 1.66148,-0.04288 3.3274,-0.165117 4.97851,0 2.04515,0.20452 4.12045,0.487302 6.04493,1.208985 0.52576,0.350512 0.42006,0.276691 0.7871,0.529297 l -7.5039,-18.3105471 c -0.84,-2.04 -2.39969,-3.05859378 -4.67969,-3.05859378 z"
         style="font-size:50.79999924px;letter-spacing:10.86908436px;stroke-width:0.26458332"
         inkscape:connector-curvature="0" /></g><g
       id="t1"
       class="l"><path
         
         id="path4414"
         d="m 366.38281,107.41797 -1.18554,0 c -6.31767,0 -5.85608,0.12648 -5.10352,0.0391 0.37628,-0.0437 0.8251,-0.14003 0.53516,-0.33398 -0.28995,-0.19396 -1.31779,-0.48428 -3.89649,-0.91407 -0.13243,-0.0221 -0.60039,0.0153 -0.78906,0 l 0,24.29102 c 0,1.44 0.47945,2.6993 1.43945,3.7793 0.96,0.96 2.22125,1.4414 3.78125,1.4414 1.44,0 2.63961,-0.4814 3.59961,-1.4414 1.08,-1.08 1.61914,-2.3393 1.61914,-3.7793 l 0,-23.08203 z"
         style="font-size:50.79999924px;letter-spacing:10.86908436px;stroke-width:0.26458332"
         inkscape:connector-curvature="0" /><path
         
         id="path4412"
         d="m 355.94336,75.976562 0,30.232418 c 0.18867,0.0153 0.65663,-0.0221 0.78906,0 2.5787,0.42979 3.60654,0.72011 3.89649,0.91407 0.28994,0.19395 -0.15888,0.29027 -0.53516,0.33398 -0.75256,0.0874 -1.21415,-0.0391 5.10352,-0.0391 l 1.18554,0 0,-31.441408 -10.43945,0 z"
         style="font-size:50.79999924px;letter-spacing:10.86908436px;stroke-width:0.26458332"
         inkscape:connector-curvature="0" /><path
         
         id="path4410"
         d="m 366.38281,56.210938 0,-32.451172 c 0,-1.32 -0.53914,-2.459922 -1.61914,-3.419922 -0.96,-1.08 -2.15961,-1.619141 -3.59961,-1.619141 -1.56,0 -2.82125,0.539141 -3.78125,1.619141 -0.96,0.96 -1.43945,2.099922 -1.43945,3.419922 l 0,27.46875 c 1.31477,0.504368 2.63464,1.000195 3.91406,1.552734 1.81247,0.78274 3.59101,1.639339 5.33985,2.638672 0.41249,0.235711 0.78716,0.53248 1.18554,0.791016 z"
         style="font-size:50.79999924px;letter-spacing:10.86908436px;stroke-width:0.26458332"
         inkscape:connector-curvature="0" /><path
         
         id="path4408"
         d="m 366.38281,56.210938 c -0.39838,-0.258536 -0.77305,-0.555305 -1.18554,-0.791016 -1.74884,-0.999333 -3.52738,-1.855932 -5.33985,-2.638672 -1.27942,-0.552539 -2.59929,-1.048366 -3.91406,-1.552734 l 0,24.748046 10.43945,0 0,-19.765624 z"
         style="font-size:50.79999924px;letter-spacing:10.86908436px;stroke-width:0.26458332"
         inkscape:connector-curvature="0" /><path
         
         id="path4406"
         d="m 390.5918,0.72070312 c 0.0647,2.10632788 -0.23301,4.23173918 0,6.32812498 0.14067,1.2668776 0.89983,2.3922921 1.20898,3.6289059 0.025,0.09986 0.037,0.202568 0.0606,0.302735 l 12.14258,0 c 1.44,0 2.63961,-0.481407 3.59961,-1.4414065 1.08,-1.08 1.61914,-2.2796094 1.61914,-3.5996094 0,-1.44 -0.53914,-2.6396094 -1.61914,-3.5996093 -0.96,-1.08 -2.15961,-1.61914068 -3.59961,-1.61914068 l -13.41211,0 z"
         style="font-size:50.79999924px;letter-spacing:10.86908436px;stroke-width:0.26458332"
         inkscape:connector-curvature="0" /><path
         
         id="path4404"
         d="m 334.96484,10.980469 0,-10.25976588 -16.28125,0 c -1.44,0 -2.69929,0.53914068 -3.77929,1.61914068 -0.96,0.9599999 -1.44141,2.1596093 -1.44141,3.5996093 0,1.32 0.48141,2.5196094 1.44141,3.5996094 1.08,0.9599995 2.33929,1.4414065 3.77929,1.4414065 l 16.28125,0 z"
         style="font-size:50.79999924px;letter-spacing:10.86908436px;stroke-width:0.26458332"
         inkscape:connector-curvature="0" /><path
         
         id="path4402"
         d="m 349.75781,0.72070312 -14.79297,0 0,10.25976588 5.44141,0 c 0.5639,-0.937338 1.1048,-1.8947133 1.81445,-2.7226565 0.13693,-0.1597326 4.97123,-4.971888 7.53711,-7.53710938 z"
         style="font-size:50.79999924px;letter-spacing:10.86908436px;stroke-width:0.26458332"
         inkscape:connector-curvature="0" /><path
         
         id="path13"
         d="m 349.75781,0.72070312 c -2.56588,2.56522138 -7.40018,7.37737678 -7.53711,7.53710938 -0.70965,0.8279432 -1.25055,1.7853185 -1.81445,2.7226565 l 51.45508,0 c -0.0236,-0.100167 -0.0356,-0.202875 -0.0606,-0.302735 -0.30915,-1.2366138 -1.06831,-2.3620283 -1.20898,-3.6289059 -0.23301,-2.0963858 0.0647,-4.2217971 0,-6.32812498 l -40.83399,0 z"
         style="font-size:50.79999924px;letter-spacing:10.86908436px;stroke-width:0.26458332"
         inkscape:connector-curvature="0" /></g><g
       id="a2"
       class="l"><path
         
         id="path4435"
         d="m 511.71875,99.359375 23.06641,0 c 1.44,0 2.63961,-0.479453 3.59961,-1.439453 1.08,-1.08 1.62109,-2.339297 1.62109,-3.779297 0,-1.44 -0.54109,-2.641563 -1.62109,-3.601563 -0.96,-1.079999 -2.15961,-1.61914 -3.59961,-1.61914 l -20.49024,0 c -0.12929,0.112476 -0.30576,0.198621 -0.35937,0.359375 -0.25477,0.764801 0.15803,1.627453 0,2.417969 -0.24998,1.249919 -0.85891,2.401323 -1.20899,3.626953 -0.38081,1.332825 -0.59485,2.71701 -1.00781,4.035156 z"
         style="font-size:50.79999924px;letter-spacing:10.86908436px;stroke-width:0.26458332"
         inkscape:connector-curvature="0" /><path
         
         id="path4433"
         d="m 511.71875,99.359375 c 0.41296,-1.318146 0.627,-2.702331 1.00781,-4.035156 0.35008,-1.22563 0.95901,-2.377034 1.20899,-3.626953 0.15803,-0.790516 -0.25477,-1.653168 0,-2.417969 0.0536,-0.160754 0.23008,-0.246899 0.35937,-0.359375 l -16.22851,0 c -1.44,0 -2.70125,0.539141 -3.78125,1.61914 -0.96,0.96 -1.43946,2.161563 -1.43946,3.601563 0,1.44 0.47946,2.699297 1.43946,3.779297 1.08,0.96 2.34125,1.439453 3.78125,1.439453 l 13.65234,0 z"
         style="font-size:50.79999924px;letter-spacing:10.86908436px;stroke-width:0.26458332"
         inkscape:connector-curvature="0" /><path
         
         id="path4431"
         d="m 479.38477,109.83594 -11.38086,0 -7.73829,18.68359 c -0.59999,1.32 -0.59999,2.64094 0,3.96094 0.6,1.32 1.56086,2.27891 2.88086,2.87891 0.48,0.23999 1.13852,0.36132 1.97852,0.36132 2.04,0 3.66133,-1.02054 4.86133,-3.06054 l 9.39844,-22.82422 z"
         style="font-size:50.79999924px;letter-spacing:10.86908436px;stroke-width:0.26458332"
         inkscape:connector-curvature="0" /><path
         
         id="path4429"
         d="m 498.42969,63.583984 c -1.10576,-0.447376 -2.4378,-0.884697 -4.00586,-1.214843 -1.95713,-0.412063 -3.8596,-0.721403 -4.67383,-0.902344 -0.52153,-0.115895 -1.03738,-0.254874 -1.55469,-0.388672 l -20.1914,48.757815 11.38086,0 19.04492,-46.251956 z"
         style="font-size:50.79999924px;letter-spacing:10.86908436px;stroke-width:0.26458332"
         inkscape:connector-curvature="0" /><path
         
         id="path4427"
         d="m 516.23438,20.339844 c -0.33,0.0041 -0.77717,0.01172 -1.08985,0.01172 l -6.04492,0 c -1.34547,0 -2.6951,-0.06242 -4.03711,0 l -16.86719,40.726563 c 0.51731,0.133798 1.03316,0.272777 1.55469,0.388672 0.81423,0.180941 2.7167,0.490281 4.67383,0.902344 1.56806,0.330146 2.9001,0.767467 4.00586,1.214843 l 17.80469,-43.24414 z"
         style="font-size:50.79999924px;letter-spacing:10.86908436px;stroke-width:0.26458332"
         inkscape:connector-curvature="0" /><path
         
         id="path4425"
         d="m 572.66797,129.67383 c -0.41171,0.15483 -0.64372,0.28849 -1.06836,0.4375 -2.07357,0.72764 -4.2227,1.34785 -5.66602,1.49219 -1.15058,0.11506 -2.30908,0.0745 -3.46484,0.0859 l 0.39648,0.97071 c 0.6,1.32 1.50118,2.2789 2.70118,2.8789 1.32,0.48 2.63898,0.42031 3.95898,-0.17968 1.32,-0.6 2.28086,-1.55891 2.88086,-2.87891 0.42515,-0.93533 0.43908,-1.87131 0.26172,-2.80664 z"
         style="font-size:50.79999924px;letter-spacing:10.86908436px;stroke-width:0.26458332"
         inkscape:connector-curvature="0" /><path
         
         id="path4423"
         d="m 558.54492,94.695312 c -0.81598,0.980786 -1.66839,1.938637 -2.28515,3.048829 -1.05417,1.897526 -1.3638,4.147389 -2.41797,6.044919 -0.47242,0.85037 -1.16528,1.56867 -1.83399,2.29688 l 10.46094,25.60351 c 1.15576,-0.0114 2.31426,0.0291 3.46484,-0.0859 1.44332,-0.14434 3.59245,-0.76455 5.66602,-1.49219 0.42464,-0.14901 0.65665,-0.28267 1.06836,-0.4375 -0.0729,-0.38467 -0.0869,-0.76963 -0.26172,-1.1543 L 558.54492,94.695312 Z"
         style="font-size:50.79999924px;letter-spacing:10.86908436px;stroke-width:0.26458332"
         inkscape:connector-curvature="0" /><path
         
         id="path4421"
         d="m 551.36914,77.185547 c -0.9846,-0.102518 -1.98087,-0.01888 -2.97656,0.05273 -1.01333,0.07289 -2.02417,0.127532 -3.01563,-0.05273 -1.25411,-0.228021 -2.45356,-0.665129 -3.64648,-1.128906 -0.77087,-0.299694 -1.55302,-0.561004 -2.33203,-0.833985 l 12.60937,30.863284 c 0.66871,-0.72821 1.36157,-1.44651 1.83399,-2.29688 1.05417,-1.89753 1.3638,-4.147393 2.41797,-6.044919 0.61676,-1.110192 1.46917,-2.068043 2.28515,-3.048829 l -7.17578,-17.509765 z"
         style="font-size:50.79999924px;letter-spacing:10.86908436px;stroke-width:0.26458332"
         inkscape:connector-curvature="0" /><path
         
         id="path4419"
         d="m 537.11914,42.414062 c -0.44273,0.729088 -0.8847,1.458897 -1.41602,2.123047 -0.71224,0.890267 -1.78751,1.469348 -2.41992,2.417969 -0.22358,0.335374 0,0.805898 0,1.208984 0,1.20926 0.23705,2.441175 0,3.626954 -0.17681,0.883824 -0.80593,1.613748 -1.20898,2.419922 -0.18906,0.567121 -0.35213,1.14032 -0.56641,1.701171 l 7.89063,19.310547 c 0.77901,0.272981 1.56116,0.534291 2.33203,0.833985 1.19292,0.463777 2.39237,0.900885 3.64648,1.128906 0.99146,0.180266 2.0023,0.12562 3.01563,0.05273 0.99569,-0.07162 1.99196,-0.155252 2.97656,-0.05273 l -14.25,-34.771485 z"
         style="font-size:50.79999924px;letter-spacing:10.86908436px;stroke-width:0.26458332"
         inkscape:connector-curvature="0" /><path
         
         id="path4417"
         d="m 528.14258,20.511719 c -1.25631,-0.129965 -2.53378,-0.236807 -3.84375,-0.263672 -2.6021,-0.05336 -5.04077,0.04096 -7.33008,0.08203 l 14.53906,35.582031 c 0.21428,-0.560851 0.37735,-1.13405 0.56641,-1.701171 0.40305,-0.806174 1.03217,-1.536098 1.20898,-2.419922 0.23705,-1.185779 0,-2.417694 0,-3.626954 0,-0.403086 -0.22358,-0.87361 0,-1.208984 0.63241,-0.948621 1.70768,-1.527702 2.41992,-2.417969 0.53132,-0.66415 0.97329,-1.393959 1.41602,-2.123047 l -8.97656,-21.902343 z"
         style="font-size:50.79999924px;letter-spacing:10.86908436px;stroke-width:0.26458332"
         inkscape:connector-curvature="0" /><path
         
         id="path15"
         d="m 516.60547,0.72070312 c -2.28,0 -3.83969,1.01859378 -4.67969,3.05859378 L 505.0625,20.351562 c 1.34201,-0.06242 2.69164,0 4.03711,0 l 6.04492,0 c 0.31268,0 0.75985,-0.0076 1.08985,-0.01172 l 0.37109,-0.900391 0.36328,0.890625 c 2.28931,-0.04107 4.72798,-0.135396 7.33008,-0.08203 1.30997,0.02687 2.58744,0.133707 3.84375,0.263672 L 521.28516,3.7792969 c -0.84,-2.04 -2.39969,-3.05859378 -4.67969,-3.05859378 z"
         style="font-size:50.79999924px;letter-spacing:10.86908436px;stroke-width:0.26458332"
         inkscape:connector-curvature="0" /></g><g
       id="l"
       class="l"><path
         
         id="path4450"
         d="m 644.46484,135.7207 c 0.0322,-1.0295 0.0703,-2.1229 0.0703,-2.9082 0,-4.83141 -0.0735,-3.94185 0.041,-3.34766 0.0286,0.14855 0.0708,0.2772 0.12695,0.29493 0.0562,0.0177 0.12685,-0.0759 0.21876,-0.37696 0.14316,-0.469 0.38739,-2.09581 0.64257,-3.92187 l -23.80078,0 c -1.44,0 -2.70125,0.47945 -3.78125,1.43945 -0.96,0.96 -1.43945,2.15961 -1.43945,3.59961 0,1.44 0.47945,2.6993 1.43945,3.7793 1.08,0.96 2.34125,1.4414 3.78125,1.4414 l 22.70117,0 z"
         style="font-size:50.79999924px;letter-spacing:10.86908436px;stroke-width:0.26458332"
         inkscape:connector-curvature="0" /><path
         
         id="path4448"
         d="m 676.23828,125.46094 -30.67383,0 c -0.25518,1.82606 -0.49941,3.45287 -0.64257,3.92187 -0.0919,0.30107 -0.16257,0.39468 -0.21876,0.37696 -0.0562,-0.0177 -0.0983,-0.14638 -0.12695,-0.29493 -0.11449,-0.59419 -0.041,-1.48375 -0.041,3.34766 0,0.7853 -0.0381,1.8787 -0.0703,2.9082 l 29.74414,0 c 0.21433,-1.13227 0.47686,-2.49952 0.5586,-2.9082 l 1.20898,-6.04688 c 0.087,-0.43491 0.18655,-0.86683 0.26172,-1.30468 z"
         style="font-size:50.79999924px;letter-spacing:10.86908436px;stroke-width:0.26458332"
         inkscape:connector-curvature="0" /><path
         
         id="path4446"
         d="m 686.36914,135.7207 3.79492,0 c 1.32,0 2.51961,-0.4814 3.59961,-1.4414 1.08,-1.08 1.61914,-2.3393 1.61914,-3.7793 0,-1.43055 -0.53764,-2.6213 -1.60351,-3.57812 -0.64529,1.19117 -1.23891,2.41876 -2.08203,3.47265 -1.56884,1.96109 -3.51186,3.58653 -5.32813,5.32617 z"
         style="font-size:50.79999924px;letter-spacing:10.86908436px;stroke-width:0.26458332"
         inkscape:connector-curvature="0" /><path
         
         id="path4444"
         d="m 686.36914,135.7207 c 1.81627,-1.73964 3.75929,-3.36508 5.32813,-5.32617 0.84312,-1.05389 1.43674,-2.28148 2.08203,-3.47265 -0.007,-0.006 -0.009,-0.0152 -0.0156,-0.0215 -1.08,-0.96 -2.27961,-1.43945 -3.59961,-1.43945 l -13.92578,0 c -0.0752,0.43785 -0.17474,0.86977 -0.26172,1.30468 l -1.20898,6.04688 c -0.0817,0.40868 -0.34427,1.77593 -0.5586,2.9082 l 12.16016,0 z"
         style="font-size:50.79999924px;letter-spacing:10.86908436px;stroke-width:0.26458332"
         inkscape:connector-curvature="0" /><path
         
         id="path4442"
         d="m 626.80273,83.632812 c -1.35961,0.636364 -2.58746,1.604516 -4.0332,2.017579 -1.16273,0.33222 -2.4431,-0.237154 -3.62891,0 -0.8838,0.176765 -1.58111,0.874248 -2.41796,1.208984 -0.0587,0.02348 -0.12023,0.03889 -0.17969,0.06055 l 0,28.099605 c 0,1.44 0.47945,2.63961 1.43945,3.59961 1.08,0.96 2.34125,1.44141 3.78125,1.44141 1.44,0 2.63961,-0.48141 3.59961,-1.44141 0.96,-0.96 1.43945,-2.15961 1.43945,-3.59961 l 0,-31.386715 z"
         style="font-size:50.79999924px;letter-spacing:10.86908436px;stroke-width:0.26458332"
         inkscape:connector-curvature="0" /><path
         
         id="path4440"
         d="m 626.80273,73.783203 c -1.708,-0.31799 -3.39177,-0.559486 -6.45117,-1.433594 -1.22563,-0.350178 -2.40327,-0.858799 -3.6289,-1.208984 -0.0762,-0.02178 -0.10517,-0.02429 -0.17969,-0.04492 l 0,15.824219 c 0.0595,-0.02166 0.121,-0.03707 0.17969,-0.06055 0.83685,-0.334736 1.53416,-1.032219 2.41796,-1.208984 1.18581,-0.237154 2.46618,0.33222 3.62891,0 1.44574,-0.413063 2.67359,-1.381215 4.0332,-2.017579 l 0,-9.849609 z"
         style="font-size:50.79999924px;letter-spacing:10.86908436px;stroke-width:0.26458332"
         inkscape:connector-curvature="0" /><path
         
         id="path4438"
         d="m 626.80273,25.1875 c -0.13566,-5.14e-4 -0.31047,-0.09577 -0.40625,0 -0.63733,0.637338 -0.66817,1.698855 -1.20898,2.419922 -1.36811,1.824162 -3.41149,3.055397 -4.83594,4.835937 -0.86574,1.082193 -2.34323,3.654466 -3.80859,6.09375 l 0,32.558594 c 0.0745,0.02063 0.10346,0.02314 0.17969,0.04492 1.22563,0.350185 2.40327,0.858806 3.6289,1.208984 3.0594,0.874108 4.74317,1.115604 6.45117,1.433594 l 0,-48.595703 z"
         style="font-size:50.79999924px;letter-spacing:10.86908436px;stroke-width:0.26458332"
         inkscape:connector-curvature="0" /><path
         
         id="path17"
         d="m 621.76367,0.72070312 c -1.44,0 -2.70125,0.53914068 -3.78125,1.61914068 -0.96,0.9599999 -1.43945,2.1596093 -1.43945,3.5996093 l 0,32.5976559 c 1.46536,-2.439284 2.94285,-5.011557 3.80859,-6.09375 1.42445,-1.78054 3.46783,-3.011775 4.83594,-4.835937 0.54081,-0.721067 0.57165,-1.782584 1.20898,-2.419922 0.0958,-0.09577 0.27059,-5.14e-4 0.40625,0 l 0,-19.2480469 c 0,-1.44 -0.47945,-2.6396094 -1.43945,-3.5996093 -0.96,-1.08 -2.15961,-1.61914068 -3.59961,-1.61914068 z"
         style="font-size:50.79999924px;letter-spacing:10.86908436px;stroke-width:0.26458332"
         inkscape:connector-curvature="0" /></g><g
       id="y"
       class="l"><path
         
         id="path4465"
         d="m 799.92969,102.12305 c -0.20809,0.14502 -0.39407,0.32246 -0.60938,0.45703 -1.26459,0.79037 -2.82497,1.44539 -4.34765,2.17969 -1.52269,0.73429 -3.00769,1.5487 -4.11719,2.6582 -0.51383,0.51383 -0.83366,1.19438 -1.16797,1.85937 -0.005,0.009 -0.0128,0.0159 -0.0176,0.0254 l 0,21.37696 c 0,1.32 0.47946,2.51961 1.43946,3.59961 0.95999,0.96 2.16156,1.4414 3.60156,1.4414 1.56,0 2.81929,-0.4814 3.77929,-1.4414 0.96,-1.08 1.43946,-2.27961 1.43946,-3.59961 l 0,-28.55664 z"
         style="font-size:50.79999924px;letter-spacing:10.86908436px;stroke-width:0.26458332"
         inkscape:connector-curvature="0" /><path
         
         id="path4463"
         d="m 826.67188,12.443359 c 0.54818,-0.219992 1.10218,-0.414219 1.67187,-0.55664 0.39104,-0.09776 0.8059,0 1.20898,0 l 2.41797,0 2.41992,0 c 0.80618,0 1.6359,-0.19552 2.41797,0 0.77998,0.194992 1.52151,0.571758 2.22461,1.050781 l 2.83789,-4.1171875 c 0.84,-1.2 1.07875,-2.46125 0.71875,-3.78125 -0.24,-1.44 -0.96015,-2.5799219 -2.16015,-3.4199219 -1.2,-0.83999997 -2.51899,-1.07874997 -3.95899,-0.71874998 -1.32,0.23999998 -2.40023,0.90046878 -3.24023,1.98046878 l -6.55859,9.5624996 z"
         style="font-size:50.79999924px;letter-spacing:10.86908436px;stroke-width:0.26458332"
         inkscape:connector-curvature="0" /><path
         
         id="path4461"
         d="M 825.31055,32.84375 839.0332,12.9375 c -0.7031,-0.479023 -1.44463,-0.855789 -2.22461,-1.050781 -0.78207,-0.19552 -1.61179,0 -2.41797,0 l -2.41992,0 -2.41797,0 c -0.40308,0 -0.81794,-0.09776 -1.20898,0 -0.56969,0.142421 -1.12369,0.336648 -1.67187,0.55664 l -8.32813,12.142579 c 0.5528,0.12402 1.10099,0.254231 1.53516,0.601562 0.56743,0.453951 1.02453,1.006577 1.42382,1.611328 0.3993,0.604751 0.73991,1.262736 1.07422,1.927734 0.66863,1.329998 1.31023,2.689125 2.33789,3.716797 0.29047,0.290464 0.36796,0.219887 0.59571,0.400391 z"
         style="font-size:50.79999924px;letter-spacing:10.86908436px;stroke-width:0.26458332"
         inkscape:connector-curvature="0" /><path
         
         id="path4459"
         d="m 789.66992,90.488281 0,18.814449 c 0.005,-0.009 0.0128,-0.0159 0.0176,-0.0254 0.33431,-0.66499 0.65414,-1.34554 1.16797,-1.85937 1.1095,-1.1095 2.5945,-1.92391 4.11719,-2.6582 1.52268,-0.7343 3.08306,-1.38932 4.34765,-2.17969 0.21531,-0.13457 0.40129,-0.31201 0.60938,-0.45703 l 0,-13.292972 c -0.20213,0.135015 -0.4083,0.323543 -0.60938,0.449219 -0.63666,0.397915 -1.23272,0.671398 -1.81445,0.859375 -0.58173,0.187977 -1.14916,0.290118 -1.72266,0.341797 -1.147,0.103357 -2.32256,0.0078 -3.71679,0.0078 l -2.39649,0 z"
         style="font-size:50.79999924px;letter-spacing:10.86908436px;stroke-width:0.26458332"
         inkscape:connector-curvature="0" /><path
         
         id="path4457"
         d="m 791.68945,54.587891 -3.81836,-5.626953 c -0.84,-1.2 -1.92023,-1.920157 -3.24023,-2.160157 -1.32,-0.36 -2.64094,-0.06156 -3.96094,0.898438 -1.08,0.84 -1.80015,1.920234 -2.16015,3.240234 -0.24,1.32 0.0604,2.58125 0.90039,3.78125 l 6.60937,9.625 c -0.0345,-0.560303 -0.13508,-1.129775 0,-1.669922 0.4384,-1.753565 0.67373,-2.108806 0.98438,-2.300781 0.31064,-0.191975 0.69605,-0.221811 1.43359,-1.328125 0.49996,-0.749952 0.64595,-1.714151 1.20898,-2.417969 0.60132,-0.751637 1.33846,-1.38175 2.04297,-2.041015 z"
         style="font-size:50.79999924px;letter-spacing:10.86908436px;stroke-width:0.26458332"
         inkscape:connector-curvature="0" /><path
         
         id="path4455"
         d="m 791.68945,54.587891 c -0.70451,0.659265 -1.44165,1.289378 -2.04297,2.041015 -0.56303,0.703818 -0.70902,1.668017 -1.20898,2.417969 -0.73754,1.106314 -1.12295,1.13615 -1.43359,1.328125 -0.31065,0.191975 -0.54598,0.547216 -0.98438,2.300781 -0.13508,0.540147 -0.0345,1.109619 0,1.669922 l 3.65039,5.314453 0,20.828125 2.39649,0 c 1.39423,0 2.56979,0.09555 3.71679,-0.0078 0.5735,-0.05168 1.14093,-0.15382 1.72266,-0.341797 0.58173,-0.187977 1.17779,-0.46146 1.81445,-0.859375 0.20108,-0.125676 0.40725,-0.314204 0.60938,-0.449219 l 0,-19.169922 25.38086,-36.816406 c -0.22775,-0.180504 -0.30524,-0.109927 -0.59571,-0.400391 -1.02766,-1.027672 -1.66926,-2.386799 -2.33789,-3.716797 -0.33431,-0.664998 -0.67492,-1.322983 -1.07422,-1.927734 -0.39929,-0.604751 -0.85639,-1.157377 -1.42382,-1.611328 -0.43417,-0.347331 -0.98236,-0.477542 -1.53516,-0.601562 l -23.63281,34.453124 -3.02149,-4.451171 z"
         style="font-size:50.79999924px;letter-spacing:10.86908436px;stroke-width:0.26458332"
         inkscape:connector-curvature="0" /><path
         
         id="path4453"
         d="m 773.27344,27.607422 c -0.18441,0.01268 -0.37365,-0.0305 -0.55664,0 -0.88909,0.148177 -1.58111,0.874248 -2.41797,1.208984 -1.1835,0.4734 -2.4177,0.805898 -3.62695,1.208985 -1.1585,0.386163 -2.29613,0.847392 -3.47657,1.158203 l 4.1543,6.076172 c 1.08,1.44 2.52031,2.160156 4.32031,2.160156 0.96,0 1.92086,-0.300391 2.88086,-0.900391 1.2,-0.84 1.92016,-1.920234 2.16016,-3.240234 0.24,-1.44 -0.0604,-2.758985 -0.90039,-3.958985 l -2.53711,-3.71289 z"
         style="font-size:50.79999924px;letter-spacing:10.86908436px;stroke-width:0.26458332"
         inkscape:connector-curvature="0" /><path
         
         id="path19"
         d="m 750.9707,0.81054688 c -0.66,0.11999999 -1.32047,0.38859372 -1.98047,0.80859372 -1.08,0.84 -1.80015,1.9799219 -2.16015,3.4199219 -0.24,1.32 0.12008,2.58125 1.08008,3.78125 l 15.28515,22.3632815 c 1.18044,-0.310811 2.31807,-0.77204 3.47657,-1.158203 1.20925,-0.403087 2.44345,-0.735585 3.62695,-1.208985 0.83686,-0.334736 1.52888,-1.060807 2.41797,-1.208984 0.18299,-0.0305 0.37223,0.01268 0.55664,0 L 756.37109,2.8808594 c -0.96,-1.08 -2.09992,-1.7404688 -3.41992,-1.98046878 -0.66,-0.17999999 -1.32047,-0.20984374 -1.98047,-0.0898437 z"
         style="font-size:50.79999924px;letter-spacing:10.86908436px;stroke-width:0.26458332"
         inkscape:connector-curvature="0" /></g><g
       id="s"
       class="l"><path
         
         id="path4482"
         d="m 926.64453,136.13672 c -0.1134,-0.70572 -0.19652,-1.41753 -0.35156,-2.11524 -0.27652,-1.24432 -0.85891,-2.40132 -1.20899,-3.62695 -0.45329,-1.5865 -0.7638,-3.21561 -1.10546,-4.83398 -9.48202,-1.00262 -16.44714,-4.81131 -20.5586,-11.80078 -1.8,-3.12 -2.88023,-5.93899 -3.24023,-8.45899 -0.24,-2.64 -0.35938,-4.02062 -0.35938,-4.14062 0,-1.440004 -0.54109,-2.699301 -1.62109,-3.779301 -1.08,-1.08 -2.27961,-1.621093 -3.59961,-1.621093 -1.44,0 -2.6993,0.541093 -3.7793,1.621093 -0.96,1.08 -1.43945,2.339297 -1.43945,3.779301 0,0.12 0.0597,0.72078 0.17969,1.80078 0,0.96 0.17906,2.27898 0.53906,3.95898 0.36,1.56 0.83945,3.42008 1.43945,5.58008 0.72,2.04 1.68086,4.14078 2.88086,6.30078 1.08,2.04 2.52031,4.07914 4.32031,6.11914 1.92,2.04 4.25954,3.90008 7.01954,5.58008 2.76,1.68 6.0007,3.06063 9.7207,4.14062 3.25782,0.91627 7.04252,1.35719 11.16406,1.4961 z"
         style="font-size:50.79999924px;letter-spacing:10.86908436px;stroke-width:0.26458332"
         inkscape:connector-curvature="0" /><path
         
         id="path4480"
         d="M 951.34961,118.73633 C 946.57686,123.5237 939.12411,126 928.80078,126 c -1.73857,0 -3.23431,-0.27154 -4.82226,-0.43945 0.34166,1.61837 0.65217,3.24748 1.10546,4.83398 0.35008,1.22563 0.93247,2.38263 1.20899,3.62695 0.15504,0.69771 0.23816,1.40952 0.35156,2.11524 0.73653,0.0248 1.39214,0.12305 2.15625,0.12305 4.32,0 8.3386,-0.36008 12.0586,-1.08008 3.71999,-0.84 6.9607,-1.92024 9.7207,-3.24024 2.64,-1.32 4.97953,-2.87968 7.01953,-4.67968 0.77848,-0.64874 1.47328,-1.38076 2.17383,-2.10743 -0.62058,-0.59597 -1.19682,-1.17142 -2.03906,-2.01367 -0.80621,-0.80618 -1.46932,-1.78751 -2.41797,-2.41992 -1.2298,-0.81988 -2.6553,-1.30329 -3.9668,-1.98242 z"
         style="font-size:50.79999924px;letter-spacing:10.86908436px;stroke-width:0.26458332"
         inkscape:connector-curvature="0" /><path
         
         id="path4478"
         d="m 957.73438,73.412109 c -0.66522,-0.631337 -1.20327,-1.380603 -1.9336,-1.951171 -4.32,-3.84 -9.72117,-6.30086 -16.20117,-7.38086 -1.56,-0.24 -2.93867,7.03e-4 -4.13867,0.720703 -1.08,0.72 -1.74047,1.798282 -1.98047,3.238281 -0.36,1.44 -0.18094,2.760938 0.53906,3.960938 0.84,1.2 1.97992,1.920156 3.41992,2.160156 4.87616,0.914279 8.84023,2.707916 11.94727,5.328125 0.35749,-0.371501 0.69608,-0.763979 1.0918,-1.09375 1.11649,-0.930412 2.38269,-1.670228 3.6289,-2.417969 0.52602,-0.315612 1.26798,-0.590417 1.96094,-0.951171 0.69296,-0.360755 1.33606,-0.806906 1.66602,-1.466797 0.0218,-0.04368 -0.0122,-0.10053 0,-0.146485 z"
         style="font-size:50.79999924px;letter-spacing:10.86908436px;stroke-width:0.26458332"
         inkscape:connector-curvature="0" /><path
         
         id="path4476"
         d="m 957.73438,73.412109 c -0.0122,0.04595 0.0218,0.102802 0,0.146485 -0.32996,0.659891 -0.97306,1.106042 -1.66602,1.466797 -0.69296,0.360754 -1.43492,0.635559 -1.96094,0.951171 -1.24621,0.747741 -2.51241,1.487557 -3.6289,2.417969 -0.39572,0.329771 -0.73431,0.722249 -1.0918,1.09375 5.4568,4.601797 8.21289,11.80816 8.21289,21.671879 0,7.65613 -2.14608,13.45967 -6.25,17.57617 1.3115,0.67913 2.737,1.16254 3.9668,1.98242 0.94865,0.63241 1.61176,1.61374 2.41797,2.41992 0.84224,0.84225 1.41848,1.4177 2.03906,2.01367 1.24321,-1.28957 2.40848,-2.65638 3.40625,-4.1914 2.4,-4.08 3.78062,-7.98117 4.14062,-11.70117 0.48,-3.72 0.71875,-6.41961 0.71875,-8.09961 0,-1.440004 -0.17906,-3.839223 -0.53906,-7.199222 -0.24,-3.48 -1.20086,-7.140469 -2.88086,-10.980469 -1.65201,-3.789914 -4.05232,-6.880179 -6.88476,-9.56836 z"
         style="font-size:50.79999924px;letter-spacing:10.86908436px;stroke-width:0.26458332"
         inkscape:connector-curvature="0" /><path
         
         id="path4474"
         d="m 901.74805,48.119141 c -3.04431,0.540908 -5.98382,0.993704 -6.89453,1.253906 -0.86663,0.247606 -1.53608,1.032219 -2.41993,1.208984 -0.26694,0.05339 -0.54299,0.01355 -0.8125,0.04102 0.51085,1.345274 1.01376,2.687666 1.71875,4.097656 2.04,4.56 5.22102,8.399531 9.54102,11.519531 4.68,3.6 10.61836,5.760469 17.81836,6.480469 0.12,0.12 0.3607,0.179688 0.7207,0.179688 1.32,0 2.40024,-0.419766 3.24024,-1.259766 0.96,-0.84 1.56078,-1.920234 1.80078,-3.240234 0.24,-1.32 -0.12008,-2.51961 -1.08008,-3.59961 -0.84,-1.2 -1.92024,-1.920156 -3.24024,-2.160156 -4.67999,-0.6 -8.45984,-1.801563 -11.33984,-3.601563 -2.88,-1.799999 -5.15984,-3.898828 -6.83984,-6.298828 -0.92444,-1.493318 -1.62557,-3.043497 -2.21289,-4.621093 z"
         style="font-size:50.79999924px;letter-spacing:10.86908436px;stroke-width:0.26458332"
         inkscape:connector-curvature="0" /><path
         
         id="path4472"
         d="m 902.26758,23.978516 c -0.0281,1.85e-4 -0.13561,0 -0.16016,0 l -7.2539,0 c -0.80618,0 -1.63781,-0.19552 -2.41993,0 -0.54103,0.135259 -1.00918,0.466456 -1.49609,0.748046 -0.34919,1.338531 -0.71581,2.640832 -1.01758,4.074219 -0.24,1.8 -0.35937,3.419375 -0.35937,4.859375 -0.12,1.32 -0.17969,2.278907 -0.17969,2.878906 0,0.72 0.0597,1.740547 0.17969,3.060547 0,1.2 0.11937,2.640313 0.35937,4.320313 0.24,1.56 0.60008,3.300703 1.08008,5.220703 0.15938,0.478134 0.43631,0.99582 0.62109,1.482422 0.26951,-0.02746 0.54556,0.01237 0.8125,-0.04102 0.88385,-0.176765 1.5533,-0.961378 2.41993,-1.208984 0.91071,-0.260202 3.85022,-0.712998 6.89453,-1.253906 -0.4038,-1.084625 -0.7829,-2.174368 -1.02735,-3.298829 -0.6,-2.879999 -0.90039,-5.64125 -0.90039,-8.28125 0,-2.879999 0.36008,-5.88 1.08008,-9 0.33584,-1.247403 0.83953,-2.409051 1.36719,-3.560546 z"
         style="font-size:50.79999924px;letter-spacing:10.86908436px;stroke-width:0.26458332"
         inkscape:connector-curvature="0" /><path
         
         id="path4470"
         d="m 965.94727,25.1875 c -0.72906,-0.05585 -1.46543,-0.175146 -2.16602,0 -0.55304,0.13826 -0.90328,0.616715 -1.24219,1.123047 -0.3389,0.506332 -0.66787,1.041939 -1.17773,1.296875 -0.36055,0.180266 -0.78462,0.09013 -1.20899,0 -0.42436,-0.09013 -0.84847,-0.180266 -1.20898,0 -0.50988,0.254941 -0.80593,0.805898 -1.20898,1.208984 -0.52358,0 -1.04586,0.0056 -1.57032,0 0.36428,1.260236 0.69738,2.488922 0.89649,3.583985 0.36,1.2 0.53906,2.220547 0.53906,3.060547 l 0.17969,1.259765 c 0,1.44 0.4814,2.63961 1.4414,3.599609 1.08,0.96 2.3393,1.439454 3.7793,1.439454 1.32,0 2.45992,-0.479454 3.41992,-1.439454 1.08,-1.079999 1.61914,-2.34125 1.61914,-3.78125 l 0,-0.179687 c 0,-0.84 -0.29844,-2.998516 -0.89844,-6.478516 -0.20516,-1.487416 -0.65936,-3.074408 -1.19335,-4.693359 z"
         style="font-size:50.79999924px;letter-spacing:10.86908436px;stroke-width:0.26458332"
         inkscape:connector-curvature="0" /><path
         
         id="path4468"
         d="m 954.2207,8.2578125 c -0.0362,0.00763 -0.0795,-0.016893 -0.11328,0 -1.2999,0.6499594 -2.38265,1.6721778 -3.6289,2.4199215 -0.77287,0.463731 -1.66803,0.709017 -2.41797,1.208985 -0.47431,0.316208 -0.73468,0.892779 -1.20899,1.208984 -0.64824,0.432165 -1.4298,0.643697 -2.09179,1.044922 3.78635,2.119435 6.82957,5.120102 9.06054,9.080078 0.96,1.68 1.68016,3.299375 2.16016,4.859375 0.0818,0.265836 0.10877,0.477462 0.18359,0.736328 0.52446,0.0056 1.04674,0 1.57032,0 0.40305,-0.403086 0.6991,-0.954043 1.20898,-1.208984 0.36051,-0.180266 0.78462,-0.09013 1.20898,0 0.42437,0.09013 0.84844,0.180266 1.20899,0 0.50986,-0.254936 0.83883,-0.790543 1.17773,-1.296875 0.33891,-0.506332 0.68915,-0.984787 1.24219,-1.123047 0.70059,-0.175146 1.43696,-0.05585 2.16602,0 -0.71536,-2.16879 -1.64178,-4.423283 -2.94727,-6.828125 -1.2,-2.04 -2.75969,-4.138828 -4.67969,-6.298828 -1.14745,-1.376941 -2.56204,-2.6208521 -4.09961,-3.8027345 z"
         style="font-size:50.79999924px;letter-spacing:10.86908436px;stroke-width:0.26458332"
         inkscape:connector-curvature="0" /><path
         
         id="path21"
         d="m 928.61914,0.1796875 c -4.32,0 -8.33859,0.41976563 -12.05859,1.2597656 -3.72,0.84 -7.02039,1.9799219 -9.90039,3.4199219 -5.4,3 -9.48024,6.841484 -12.24024,11.521484 -1.2,1.92 -2.16086,3.899454 -2.88086,5.939453 -0.22279,0.757496 -0.39531,1.615664 -0.60156,2.40625 0.48691,-0.28159 0.95506,-0.612787 1.49609,-0.748046 0.78212,-0.19552 1.61375,0 2.41993,0 l 7.2539,0 c 0.0245,0 0.13205,1.85e-4 0.16016,0 0.79211,-1.72862 1.72873,-3.385956 2.95312,-4.898438 2.16,-2.52 5.09836,-4.559141 8.81836,-6.11914 3.72,-1.68 8.58008,-2.521485 14.58008,-2.521485 6.42257,0 11.78053,1.260583 16.14063,3.701172 0.66199,-0.401225 1.44355,-0.612757 2.09179,-1.044922 0.47431,-0.316205 0.73468,-0.892776 1.20899,-1.208984 0.74994,-0.499968 1.6451,-0.745254 2.41797,-1.208985 1.24625,-0.7477437 2.329,-1.7699621 3.6289,-2.4199215 0.0338,-0.016893 0.0771,0.00763 0.11328,0 -0.8744,-0.6721308 -1.73966,-1.3479851 -2.74023,-1.9570313 -2.76,-1.7999999 -6.0007,-3.2403125 -9.7207,-4.3203124 -3.72,-1.20000004 -8.10063,-1.8007813 -13.14063,-1.8007813 z"
         style="font-size:50.79999924px;letter-spacing:10.86908436px;stroke-width:0.26458332"
         inkscape:connector-curvature="0" /></g><g
       id="t2"
       class="l"><path
         
         id="path4501"
         d="m 1099.5215,10.980469 8.5683,0 c 1.44,0 2.6397,-0.481407 3.5997,-1.4414065 1.08,-1.08 1.6191,-2.2796094 1.6191,-3.5996094 0,-1.44 -0.5391,-2.6396094 -1.6191,-3.5996093 -0.96,-1.08 -2.1597,-1.61914068 -3.5997,-1.61914068 l -7.6621,0 0,3.91015628 0,2.4179687 c 0,0.4030866 0.098,0.8179344 0,1.2089844 -0.2318,0.9277103 -0.5582,1.8316315 -0.9062,2.7226565 z"
         style="font-size:50.79999924px;letter-spacing:10.86908436px;stroke-width:0.26458332"
         inkscape:connector-curvature="0" /><path
         
         id="path4499"
         d="m 1060.0293,61.53125 c 0.108,-0.07706 0.2111,-0.160262 0.3184,-0.238281 -0.109,-0.103536 -0.2091,-0.215178 -0.3184,-0.31836 l 0,0.556641 z"
         style="font-size:50.79999924px;letter-spacing:10.86908436px;stroke-width:0.26458332"
         inkscape:connector-curvature="0" /><path
         
         id="path4497"
         d="m 1070.4688,101.16602 c -0.089,0.0716 -0.187,0.13093 -0.2735,0.20507 -4.3088,4.30878 -4.0186,4.13788 -3.7031,3.73047 0.079,-0.10185 0.1594,-0.21826 0.1699,-0.2832 0.011,-0.0649 -0.047,-0.0792 -0.248,0.0254 -0.4016,0.20926 -1.3702,0.89065 -3.4746,2.57422 -0.4451,0.35611 -0.7855,0.85373 -1.1465,1.31641 -0.3611,0.46267 -0.7422,0.88985 -1.2715,1.10156 -0.154,0.0616 -0.3314,-0.007 -0.4922,0.0156 l 0,20.64844 c 0,1.44 0.4795,2.6993 1.4395,3.7793 0.9599,0.96 2.2212,1.4414 3.7812,1.4414 1.44,0 2.6396,-0.4814 3.5996,-1.4414 1.08,-1.08 1.6192,-2.3393 1.6192,-3.7793 l 0,-29.33398 z"
         style="font-size:50.79999924px;letter-spacing:10.86908436px;stroke-width:0.26458332"
         inkscape:connector-curvature="0" /><path
         
         id="path4495"
         d="m 1070.4688,79.509766 c -0.5283,-0.842856 -0.6278,-0.828516 -1.4825,-2.324219 -0.4122,-0.721497 -0.5453,-1.549627 -0.6601,-2.388672 -0.1149,-0.839045 -0.2114,-1.687901 -0.5489,-2.447266 -0.9546,-2.147804 -2.4628,-4.006174 -3.6289,-6.046875 -0.4472,-0.782571 -0.6318,-1.725549 -1.2089,-2.417968 -0.7822,-0.938626 -1.7048,-1.748898 -2.5918,-2.591797 -0.1073,0.07802 -0.2104,0.161225 -0.3184,0.238281 l 0,48.32031 c 0.1608,-0.0225 0.3382,0.0459 0.4922,-0.0156 0.5293,-0.21171 0.9104,-0.63889 1.2715,-1.10156 0.361,-0.46268 0.7014,-0.9603 1.1465,-1.31641 2.1044,-1.68357 3.073,-2.36496 3.4746,-2.57422 0.2007,-0.10463 0.2585,-0.0903 0.248,-0.0254 -0.011,0.0649 -0.091,0.18135 -0.1699,0.2832 -0.3155,0.40741 -0.6057,0.57831 3.7031,-3.73047 0.086,-0.0741 0.1849,-0.13345 0.2735,-0.20507 l 0,-21.656254 z"
         style="font-size:50.79999924px;letter-spacing:10.86908436px;stroke-width:0.26458332"
         inkscape:connector-curvature="0" /><path
         
         id="path4493"
         d="m 1070.4688,54.574219 c -0.6913,0.2935 -1.3796,0.592558 -2.1036,0.818359 -1.0459,0.326202 -2.0855,0.661095 -3.0058,1.236328 -0.7252,0.453189 -1.3078,1.0818 -1.8711,1.736328 -0.5634,0.654529 -1.1086,1.334149 -1.7578,1.890625 -0.4375,0.374982 -0.9166,0.697978 -1.3828,1.03711 0.887,0.842899 1.8096,1.653171 2.5918,2.591797 0.5771,0.692419 0.7617,1.635397 1.2089,2.417968 1.1661,2.040701 2.6743,3.899071 3.6289,6.046875 0.3375,0.759365 0.434,1.608221 0.5489,2.447266 0.1148,0.839045 0.2479,1.667175 0.6601,2.388672 0.8547,1.495703 0.9542,1.481363 1.4825,2.324219 l 0,-24.935547 z"
         style="font-size:50.79999924px;letter-spacing:10.86908436px;stroke-width:0.26458332"
         inkscape:connector-curvature="0" /><path
         
         id="path4491"
         d="m 1031.5,10.980469 0,-10.25976588 -8.7305,0 c -1.44,0 -2.6993,0.53914068 -3.7793,1.61914068 -0.96,0.9599999 -1.4414,2.1596093 -1.4414,3.5996093 0,1.32 0.4814,2.5196094 1.4414,3.5996094 1.08,0.9599995 2.3393,1.4414065 3.7793,1.4414065 l 8.7305,0 z"
         style="font-size:50.79999924px;letter-spacing:10.86908436px;stroke-width:0.26458332"
         inkscape:connector-curvature="0" /><path
         
         id="path4489"
         d="m 1062.8516,19.330078 c -0.5021,0.262236 -0.9842,0.561339 -1.3828,1.009766 -0.96,0.96 -1.4395,2.099922 -1.4395,3.419922 l 0,1.30664 c 0.4117,-0.739137 0.8488,-1.463084 1.2051,-2.234375 0.5393,-1.16766 1.0501,-2.350379 1.6172,-3.501953 z"
         style="font-size:50.79999924px;letter-spacing:10.86908436px;stroke-width:0.26458332"
         inkscape:connector-curvature="0" /><path
         
         id="path4487"
         d="m 1062.8516,19.330078 c -0.5671,1.151574 -1.0779,2.334293 -1.6172,3.501953 -0.3563,0.771291 -0.7934,1.495238 -1.2051,2.234375 l 0,35.908203 c 0.1093,0.103182 0.2094,0.214824 0.3184,0.31836 0.4662,-0.339132 0.9453,-0.662128 1.3828,-1.03711 0.6492,-0.556476 1.1944,-1.236096 1.7578,-1.890625 0.5633,-0.654528 1.1459,-1.283139 1.8711,-1.736328 0.9203,-0.575233 1.9599,-0.910126 3.0058,-1.236328 0.724,-0.225801 1.4123,-0.524859 2.1036,-0.818359 l 0,-30.814453 c 0,-1.32 -0.5392,-2.459922 -1.6192,-3.419922 -0.96,-1.08 -2.1596,-1.619141 -3.5996,-1.619141 -0.9123,0 -1.6914,0.240038 -2.3984,0.609375 z"
         style="font-size:50.79999924px;letter-spacing:10.86908436px;stroke-width:0.26458332"
         inkscape:connector-curvature="0" /><path
         
         id="path4485"
         d="m 1072.0059,0.72070312 -40.5059,0 0,10.25976588 35.5234,0 c 0.8982,-1.7775926 2.362,-4.6219287 3.9551,-7.8906252 0.4504,-0.9240699 0.6025,-1.4637379 1.0274,-2.36914068 z"
         style="font-size:50.79999924px;letter-spacing:10.86908436px;stroke-width:0.26458332"
         inkscape:connector-curvature="0" /><path
         
         id="path23"
         d="m 1072.0059,0.72070312 c -0.4249,0.90540278 -0.577,1.44507078 -1.0274,2.36914068 -1.5931,3.2686965 -3.0569,6.1130326 -3.9551,7.8906252 l 32.4981,0 c 0.348,-0.891025 0.6744,-1.7949462 0.9062,-2.7226565 0.098,-0.39105 0,-0.8058978 0,-1.2089844 l 0,-2.4179687 0,-3.91015628 -28.4218,0 z"
         style="font-size:50.79999924px;letter-spacing:10.86908436px;stroke-width:0.26458332"
         inkscape:connector-curvature="0" /></g></g></svg>