<?xml version="1.0" encoding="UTF-8" standalone="no"?>
<svg
   xmlns:dc="http://purl.org/dc/elements/1.1/"
   xmlns:cc="http://creativecommons.org/ns#"
   xmlns:rdf="http://www.w3.org/1999/02/22-rdf-syntax-ns#"
   xmlns:svg="http://www.w3.org/2000/svg"
   xmlns="http://www.w3.org/2000/svg"
   xmlns:sodipodi="http://sodipodi.sourceforge.net/DTD/sodipodi-0.dtd"
   xmlns:inkscape="http://www.inkscape.org/namespaces/inkscape"
   viewBox="0 0 109.76666 109.768"
   height="109.768"
   width="109.76666"
   xml:space="preserve"
   id="svg2"
   version="1.1"
   inkscape:version="0.91 r13725"
   sodipodi:docname="circle-glyph.svg"><sodipodi:namedview
     pagecolor="#ffffff"
     bordercolor="#666666"
     borderopacity="1"
     objecttolerance="10"
     gridtolerance="10"
     guidetolerance="10"
     inkscape:pageopacity="0"
     inkscape:pageshadow="2"
     inkscape:window-width="1440"
     inkscape:window-height="787"
     id="namedview54"
     showgrid="false"
     inkscape:zoom="0.83035712"
     inkscape:cx="287.54788"
     inkscape:cy="47.102804"
     inkscape:window-x="0"
     inkscape:window-y="1"
     inkscape:window-maximized="1"
     inkscape:current-layer="g12"
     fit-margin-top="0"
     fit-margin-left="0"
     fit-margin-right="0"
     fit-margin-bottom="0" /><metadata
     id="metadata8"><rdf:RDF><cc:Work
         rdf:about=""><dc:format>image/svg+xml</dc:format><dc:type
           rdf:resource="http://purl.org/dc/dcmitype/StillImage" /><dc:title></dc:title></cc:Work></rdf:RDF></metadata><defs
     id="defs6"><clipPath
       id="clipPath18"
       clipPathUnits="userSpaceOnUse"><path
         id="path16"
         d="M 0,288 560,288 560,0 0,0 Z"
         inkscape:connector-curvature="0" /></clipPath></defs><g
     transform="matrix(1.3333333,0,0,-1.3333333,-85.785465,254.66519)"
     id="g10"><g
       id="g12"><g
         id="g3426"><g
           transform="translate(143.0015,149.8359)"
           id="g20"><path
             id="path22"
             style="fill:#000000;fill-opacity:1;fill-rule:nonzero;stroke:none"
             d="M 0,0 C 0,-20.711 -16.79,-37.5 -37.5,-37.5 -58.211,-37.5 -75,-20.711 -75,0 -75,20.71 -58.211,37.5 -37.5,37.5 -16.79,37.5 0,20.71 0,0"
             inkscape:connector-curvature="0" /></g><g
           transform="translate(143.0015,149.8359)"
           id="g24"><path
             id="path26"
             style="fill:none;stroke:#000000;stroke-width:1;stroke-linecap:butt;stroke-linejoin:miter;stroke-miterlimit:10;stroke-dasharray:none;stroke-opacity:1"
             d="M 0,0 C 0,-20.711 -16.79,-37.5 -37.5,-37.5 -58.211,-37.5 -75,-20.711 -75,0 -75,20.71 -58.211,37.5 -37.5,37.5 -16.79,37.5 0,20.71 0,0 Z"
             inkscape:connector-curvature="0" /></g><g
           transform="translate(133.6089,121.7285)"
           id="g28"><path
             id="path30"
             style="fill:none;stroke:#ffffff;stroke-width:2;stroke-linecap:butt;stroke-linejoin:miter;stroke-miterlimit:10;stroke-dasharray:none;stroke-opacity:1"
             d="m 0,0 c -1.074,-1.074 -14.529,10.64 -30.052,26.163 -15.523,15.523 -27.237,28.978 -26.163,30.052 1.074,1.074 14.529,-10.64 30.052,-26.163 C -10.64,14.528 1.074,1.074 0,0 Z"
             inkscape:connector-curvature="0" /></g><g
           transform="translate(145.6641,149.8359)"
           id="g32"><path
             id="path34"
             style="fill:none;stroke:#000000;stroke-width:2;stroke-linecap:butt;stroke-linejoin:miter;stroke-miterlimit:10;stroke-dasharray:none;stroke-opacity:1"
             d="m 0,0 c 0,-22.182 -17.981,-40.163 -40.163,-40.163 -22.181,0 -40.162,17.981 -40.162,40.163 0,22.181 17.981,40.163 40.162,40.163 C -17.981,40.163 0,22.181 0,0 Z"
             inkscape:connector-curvature="0" /></g></g></g></g></svg>